<svg xmlns="http://www.w3.org/2000/svg" viewBox="0 0 16 16"><title>attr</title><path d="M15.2,6.86l-1.93-.21a5.3,5.3,0,0,0-.58-1.44l1.2-1.5a.9.9,0,0,0-.07-1.2l-.33-.34a.92.92,0,0,0-1.21-.07L10.79,3.29a5.6,5.6,0,0,0-1.45-.63L9.13.8a.91.91,0,0,0-.9-.8H7.76a.91.91,0,0,0-.9.8l-.2,1.83a5.38,5.38,0,0,0-1.53.61L3.71,2.11a.9.9,0,0,0-1.2.06l-.34.34a.91.91,0,0,0-.07,1.2l1.12,1.4a5.63,5.63,0,0,0-.66,1.56L.8,6.86a.91.91,0,0,0-.8.9v.47a.91.91,0,0,0,.8.9l1.76.2a5.66,5.66,0,0,0,.65,1.56L2.1,12.29a.91.91,0,0,0,.07,1.2l.34.33a.9.9,0,0,0,.64.27.89.89,0,0,0,.56-.2l1.41-1.12a5.48,5.48,0,0,0,1.53.6l.21,1.83a.91.91,0,0,0,.9.8h.47a.91.91,0,0,0,.9-.8l.21-1.87a5.28,5.28,0,0,0,1.47-.62l1.48,1.18a.92.92,0,0,0,1.2-.07l.33-.33a.89.89,0,0,0,.07-1.2l-1.19-1.5a5.3,5.3,0,0,0,.58-1.44l1.92-.22a.91.91,0,0,0,.8-.9V7.76A.91.91,0,0,0,15.2,6.86ZM10.75,8A2.82,2.82,0,1,1,7.94,5.18,2.82,2.82,0,0,1,10.75,8Z" style="fill:#fff"/></svg>