<svg xmlns="http://www.w3.org/2000/svg" viewBox="0 0 16 16"><title>function</title><path d="M.19,14.78a.59.59,0,0,1,.22-.08c.16,0,.31.14.43.4a1.5,1.5,0,0,0,.16.29.5.5,0,0,0,.39.22,1.21,1.21,0,0,0,.74-.42,5.23,5.23,0,0,0,.71-1.37,18.92,18.92,0,0,0,.57-1.92L4.12,9c0-.18.08-.38.13-.6l.47-2c.13-.52.23-.89.3-1.1H3.74c0-.16,0-.3,0-.43l.32,0,1,0a24.28,24.28,0,0,1,.72-2.4A6.33,6.33,0,0,1,6.59,1,3,3,0,0,1,7.45.16,1,1,0,0,1,8.06,0,1,1,0,0,1,8.8.3a.94.94,0,0,1,.28.62A.56.56,0,0,1,9,1.28a.31.31,0,0,1-.26.15.45.45,0,0,1-.33-.14A.9.9,0,0,1,8.16.83.86.86,0,0,0,8,.5.36.36,0,0,0,7.78.42a.41.41,0,0,0-.25.07A1.71,1.71,0,0,0,7,1a4.16,4.16,0,0,0-.4.84,12.85,12.85,0,0,0-.46,1.59C6,4.13,5.92,4.56,5.9,4.72l.19,0,.68,0,.22,0a.57.57,0,0,1,0,.12,1.33,1.33,0,0,1,0,.32l-1.19.05-.24,1-.6,2.62a2.65,2.65,0,0,1-.09.34,5.18,5.18,0,0,0-.15.62l-.54,2.06a14,14,0,0,1-.7,2,6.12,6.12,0,0,1-.86,1.39,2.67,2.67,0,0,1-.81.65,1.6,1.6,0,0,1-.71.14,1.22,1.22,0,0,1-.84-.23A.75.75,0,0,1,0,15.22.5.5,0,0,1,.19,14.78ZM10,3.7l.11.14A9.61,9.61,0,0,0,8.77,5.62,11.12,11.12,0,0,0,7.68,8.34a12.26,12.26,0,0,0-.41,3.15,11.3,11.3,0,0,0,.39,2.87l-.14.11A10.07,10.07,0,0,1,7.64,6.9,8.3,8.3,0,0,1,10,3.7Zm-.67,6.66,0,.12a1.69,1.69,0,0,0-.1.36.2.2,0,0,0,.06.14.13.13,0,0,0,.12.07.2.2,0,0,0,.13,0,4.86,4.86,0,0,0,.75-.71c.36-.4.64-.72.84-1a6,6,0,0,0-.27-.63l-.49-1a.91.91,0,0,0-.18-.24.28.28,0,0,0-.12,0,.16.16,0,0,0-.13.08c-.06.5-.09.78-.11.85a.44.44,0,0,1-.15-.22,1.43,1.43,0,0,1-.08-.51A1.33,1.33,0,0,1,9.73,7c.09-.2.2-.3.31-.3a.55.55,0,0,1,.38.23,8.78,8.78,0,0,1,.92,1.69,2.29,2.29,0,0,0,.14.3l.93-1a10.88,10.88,0,0,1,1-1,.91.91,0,0,1,.28-.17.31.31,0,0,1,.13,0,.22.22,0,0,1,.18.11.5.5,0,0,1,.07.29,1,1,0,0,1-.28.78.35.35,0,0,1-.17.07l-.16,0a1.21,1.21,0,0,0,.19-.43.29.29,0,0,0-.06-.17l-.08,0a.5.5,0,0,0-.15.05,2.43,2.43,0,0,0-.32.23,6.46,6.46,0,0,0-.74.74l-.66.75c.41.92.65,1.45.73,1.57s.12.14.18.14a.19.19,0,0,0,.15-.1.44.44,0,0,0,.11-.2l0-.39v-.05a.17.17,0,0,1,.1,0,1.15,1.15,0,0,1,.12.57,1.54,1.54,0,0,1-.08.41.66.66,0,0,1-.17.32.35.35,0,0,1-.24.12.34.34,0,0,1-.23-.1,2.23,2.23,0,0,1-.37-.53c0-.05-.19-.39-.48-1l-.18-.35-.41.47a10.52,10.52,0,0,1-1.26,1.32.8.8,0,0,1-.47.21.41.41,0,0,1-.31-.14.57.57,0,0,1-.13-.36.76.76,0,0,1,.18-.49.47.47,0,0,1,.36-.23Zm3.5,4.08-.13-.12a9.56,9.56,0,0,0,.88-1,7.39,7.39,0,0,0,.45-.7s.08-.16.2-.37A11.7,11.7,0,0,0,14.78,11a9.94,9.94,0,0,0,.55-1.86,12.86,12.86,0,0,0,.24-2.53,9.43,9.43,0,0,0-.07-1.22c-.05-.38-.15-.92-.3-1.6l.13-.1a10.2,10.2,0,0,1,.34,6.21,8.93,8.93,0,0,1-1.16,2.67A7.55,7.55,0,0,1,12.84,14.44Z" style="fill:#f2f2f2"/></svg>