<svg xmlns="http://www.w3.org/2000/svg" viewBox="0 0 16 16"><title>litt</title><path d="M1.79,2.69a11.57,11.57,0,0,0,.14,1.62,14.72,14.72,0,0,1,.12,1.6c0,.65-.16,1.41-1.57,1.43v1.3c1.41,0,1.57.84,1.57,1.43a14.36,14.36,0,0,1-.12,1.58,11.29,11.29,0,0,0-.14,1.6c0,2,1.24,2.75,3,2.75h.58V14.58H5c-1,0-1.4-.59-1.4-1.59a7.14,7.14,0,0,1,.14-1.26c0-.44.12-.92.12-1.46A2,2,0,0,0,2.25,8V8a1.94,1.94,0,0,0,1.6-2.25c0-.52-.08-1-.12-1.44A7.14,7.14,0,0,1,3.59,3C3.59,2,4,1.44,5,1.44h.36V0H4.77C3,0,1.79.8,1.79,2.69ZM14,5.91a14.83,14.83,0,0,1,.14-1.6,15.65,15.65,0,0,0,.14-1.62C14.24.8,13,0,11.25,0h-.58V1.44H11c1,0,1.38.59,1.38,1.57a9.55,9.55,0,0,1-.12,1.26,10.47,10.47,0,0,0-.12,1.44A1.94,1.94,0,0,0,13.75,8V8a2,2,0,0,0-1.58,2.27,10.51,10.51,0,0,0,.12,1.46A9.55,9.55,0,0,1,12.41,13c0,1-.38,1.56-1.38,1.58h-.36V16h.58c1.74,0,3-.72,3-2.75a15.28,15.28,0,0,0-.14-1.6A14.47,14.47,0,0,1,14,10.07c0-.59.18-1.41,1.56-1.43V7.34C14.14,7.32,14,6.56,14,5.91Z" style="fill:#fff"/></svg>