<svg xmlns="http://www.w3.org/2000/svg" viewBox="0 0 16 7.34"><title>strt</title><path d="M7.22,10.55,4.31,4.74a.74.74,0,0,0-1-.27A.7.7,0,0,0,3,4.74L.11,10.55a.74.74,0,0,0,.23,1,.74.74,0,0,0,1-.23l.06-.13.52-1H5.39l.53,1a.71.71,0,0,0,1,.33.73.73,0,0,0,.33-1ZM2.66,8.7l1-2,1,2Zm12.61,2.91H10.92a.72.72,0,0,1-.65-.41.7.7,0,0,1,.07-.76l3.48-4.65h-2.9a.73.73,0,0,1,0-1.46h4.35a.72.72,0,0,1,.65.41.7.7,0,0,1-.07.76l-3.48,4.65h2.9a.73.73,0,0,1,0,1.46ZM9.46,8.7H8A.73.73,0,0,1,8,7.24H9.46a.73.73,0,0,1,0,1.46Z" transform="translate(0 -4.33)" style="fill:#fff"/></svg>