<svg xmlns="http://www.w3.org/2000/svg" viewBox="0 0 16 16"><title>code</title><path d="M4.11,10.39,1.34,8.15,4.11,5.91a.51.51,0,0,0,0-.74.54.54,0,0,0-.76,0L.15,7.75a.61.61,0,0,0,0,.8l3.2,2.58a.56.56,0,0,0,.76,0A.51.51,0,0,0,4.11,10.39Zm7.6-9.25a.54.54,0,0,0-.73.19L4.32,14.17a.48.48,0,0,0,.19.71c.35.1.58.06.73-.19L11.91,1.85A.51.51,0,0,0,11.71,1.14Zm4.14,6.61-3.2-2.58a.54.54,0,0,0-.76,0,.51.51,0,0,0,0,.74l2.77,2.24-2.77,2.24a.51.51,0,0,0,0,.74.56.56,0,0,0,.76,0l3.2-2.58a.61.61,0,0,0,0-.8Z"/></svg>